<?xml version="1.0" encoding="utf-8"?>
<!-- Generator: Adobe Illustrator 20.0.0, SVG Export Plug-In . SVG Version: 6.00 Build 0)  -->
<svg version="1.1" id="Layer_1" xmlns="http://www.w3.org/2000/svg" xmlns:xlink="http://www.w3.org/1999/xlink" x="0px" y="0px"
	 viewBox="0 0 13 14" style="enable-background:new 0 0 13 14;" xml:space="preserve">
<style type="text/css">
	.st0{fill:#7C8388;}
</style>
<rect x="3" y="4" class="st0" width="1" height="9"/>
<rect x="6" y="4" class="st0" width="1" height="9"/>
<rect x="9" y="4" class="st0" width="1" height="9"/>
<rect x="1" y="10" class="st0" width="11" height="1"/>
<rect x="1" y="7" class="st0" width="11" height="1"/>
<path class="st0" d="M12,2h-1V1c0-0.6-0.4-1-1-1H9C8.4,0,8,0.4,8,1v1H5V1c0-0.6-0.4-1-1-1H3C2.4,0,2,0.4,2,1v1H1C0.4,2,0,2.4,0,3v10
	c0,0.6,0.4,1,1,1h11c0.6,0,1-0.4,1-1V3C13,2.4,12.6,2,12,2z M9,1h1v3H9V1z M3,1h1v3H3V1z M12,13H1V5h11V13z"/>
</svg>
